<svg xmlns="http://www.w3.org/2000/svg" xmlns:xlink="http://www.w3.org/1999/xlink" version="1.1" id="Layer_1" x="0px" y="0px" width="512px" height="512px" viewBox="0 0 512 512" enable-background="new 0 0 512 512" xml:space="preserve">
<g>
  <g>
    <path fill='#FFFFFF' d=" M47.205 308.271h106.337l163.207-163.205V66.75L179.782 203.721H47.205c-12.317 0-22.303 9.986-22.303 22.303v59.939 C24.902 298.3 34.9 308.3 47.2 308.271z"/>
    <polygon fill='#FFFFFF' points="212.7,341.2 316.7,445.2 316.7,237.2"/>
  </g>
  <path fill='#FFFFFF' d="M442.856 38.189c7.613-7.612 19.961-7.612 27.6 0l0 0c7.613 7.6 7.6 20 0 27.58L62.375 473.8 c-7.623 7.623-19.962 7.623-27.574 0l0 0c-7.623-7.601-7.623-19.95 0-27.573L442.856 38.189z"/>
  <path fill='#FFFFFF' d="M432.13 130.19c61.616 89 53 212.365-26.225 291.591c-4.355 4.355-4.355 11.4 0 15.8 c2.179 2.2 5 3.3 7.9 3.268c2.854 0 5.707-1.09 7.886-3.268c87.938-87.938 96.553-225.33 26.386-323.297L432.13 130.19z"/>
</g>
</svg>
