<svg xmlns="http://www.w3.org/2000/svg" xmlns:xlink="http://www.w3.org/1999/xlink" version="1.1" id="Layer_1" x="0px" y="0px" width="512px" height="512px" viewBox="0 0 512 512" enable-background="new 0 0 512 512" xml:space="preserve">
  <g>
    <path fill='#FFFFFF' d=" M319.396 47.722l-145.663 145.67H32.735c-13.099 0-23.719 10.621-23.719 23.719v63.746c0 13.1 10.6 23.7 23.7 23.7 h141.002l145.658 145.665V47.722z"/>
    <path fill='#FFFFFF' d="M422.602 445.544c-3.034 0-6.069-1.158-8.385-3.475c-4.633-4.633-4.633-12.138 0-16.77 c94.785-94.786 94.785-249.032 0-343.834c-4.633-4.633-4.633-12.138 0-16.771c4.632-4.633 12.137-4.633 16.8 0 c104.039 104.1 104 273.3 0 377.375C428.671 444.4 425.6 445.5 422.6 445.544z"/>
  </g>
</svg>
